<svg width="24" height="25" viewBox="0 0 24 25" fill="none" xmlns="http://www.w3.org/2000/svg">
<path d="M16.19 2.33331H7.81C4.17 2.33331 2 4.50331 2 8.14331V16.5133C2 20.1633 4.17 22.3333 7.81 22.3333H16.18C19.82 22.3333 21.99 20.1633 21.99 16.5233V8.14331C22 4.50331 19.83 2.33331 16.19 2.33331ZM18.51 13.5233C18.51 14.1233 18.05 14.4233 17.5 14.1833L14.15 12.7433C13.76 12.5833 13.45 12.7833 13.45 13.2033V15.0533C13.45 15.2133 13.54 15.4433 13.66 15.5633L15.3 17.2133C15.47 17.3833 15.55 17.7233 15.47 17.9533L15.15 18.9133C15.01 19.3333 14.53 19.5333 14.14 19.3333L12.47 17.9133C12.21 17.7033 11.79 17.7033 11.54 17.9133L9.86 19.3333C9.46 19.5333 8.99 19.3333 8.85 18.9033L8.53 17.9433C8.45 17.7133 8.53 17.3733 8.7 17.2033L10.37 15.5633C10.48 15.4533 10.58 15.2233 10.58 15.0533V13.2033C10.58 12.7833 10.26 12.5733 9.88 12.7433L6.53 14.1833C5.97 14.4233 5.52 14.1233 5.52 13.5233V12.5933C5.52 12.1133 5.89 11.5533 6.33 11.3633L10.27 9.66331C10.43 9.59331 10.57 9.38331 10.57 9.20331V7.13331C10.57 6.45331 11.06 5.64331 11.67 5.34331C11.89 5.23331 12.14 5.23331 12.36 5.34331C12.96 5.65331 13.46 6.45331 13.46 7.13331V9.20331C13.46 9.38331 13.59 9.59331 13.76 9.66331L17.7 11.3633C18.15 11.5533 18.51 12.1133 18.51 12.5933V13.5233Z" fill="#F7F8F8"/>
</svg>
