<svg width="24" height="25" viewBox="0 0 24 25" fill="none" xmlns="http://www.w3.org/2000/svg">
<path d="M17.8099 5.82325V6.56325L14.2699 4.51325C12.9299 3.74325 11.0599 3.74325 9.72994 4.51325L6.18994 6.57325V5.82325C6.18994 3.57325 7.41994 2.33325 9.66994 2.33325H14.3299C16.5799 2.33325 17.8099 3.57325 17.8099 5.82325Z" fill="#F7F8F8"/>
<path d="M17.84 8.30324L17.7 8.23324L16.34 7.45324L13.52 5.82324C12.66 5.32324 11.34 5.32324 10.48 5.82324L7.66 7.44324L6.3 8.24324L6.12 8.33324C4.37 9.51324 4.25 9.73324 4.25 11.6232V16.1432C4.25 18.0332 4.37 18.2532 6.16 19.4632L10.48 21.9532C10.91 22.2132 11.45 22.3232 12 22.3232C12.54 22.3232 13.09 22.2032 13.52 21.9532L17.88 19.4332C19.64 18.2532 19.75 18.0432 19.75 16.1432V11.6232C19.75 9.73324 19.63 9.51324 17.84 8.30324ZM14.79 13.8332L14.18 14.5832C14.08 14.6932 14.01 14.9032 14.02 15.0532L14.08 16.0132C14.12 16.6032 13.7 16.9032 13.15 16.6932L12.26 16.3332C12.12 16.2832 11.89 16.2832 11.75 16.3332L10.86 16.6832C10.31 16.9032 9.89 16.5932 9.93 16.0032L9.99 15.0432C10 14.8932 9.93 14.6832 9.83 14.5732L9.21 13.8332C8.83 13.3832 9 12.8832 9.57 12.7332L10.5 12.4932C10.65 12.4532 10.82 12.3132 10.9 12.1932L11.42 11.3932C11.74 10.8932 12.25 10.8932 12.58 11.3932L13.1 12.1932C13.18 12.3232 13.36 12.4532 13.5 12.4932L14.43 12.7332C15 12.8832 15.17 13.3832 14.79 13.8332Z" fill="#F7F8F8"/>
</svg>
