<svg width="24" height="25" viewBox="0 0 24 25" fill="none" xmlns="http://www.w3.org/2000/svg">
<path d="M22 19.6666V22.6666H2V19.6666C2 19.1166 2.45 18.6666 3 18.6666H21C21.55 18.6666 22 19.1166 22 19.6666Z" fill="#F7F8F8" stroke="#F7F8F8" stroke-width="1.5" stroke-miterlimit="10" stroke-linecap="round" stroke-linejoin="round"/>
<path d="M7 11.6666H5V18.6666H7V11.6666Z" fill="#F7F8F8"/>
<path d="M11 11.6666H9V18.6666H11V11.6666Z" fill="#F7F8F8"/>
<path d="M15 11.6666H13V18.6666H15V11.6666Z" fill="#F7F8F8"/>
<path d="M19 11.6666H17V18.6666H19V11.6666Z" fill="#F7F8F8"/>
<path d="M23 23.4166H1C0.59 23.4166 0.25 23.0766 0.25 22.6666C0.25 22.2566 0.59 21.9166 1 21.9166H23C23.41 21.9166 23.75 22.2566 23.75 22.6666C23.75 23.0766 23.41 23.4166 23 23.4166Z" fill="#F7F8F8"/>
<path d="M21.37 6.41665L12.37 2.81665C12.17 2.73665 11.83 2.73665 11.63 2.81665L2.63 6.41665C2.28 6.55665 2 6.96665 2 7.34665V10.6667C2 11.2167 2.45 11.6667 3 11.6667H21C21.55 11.6667 22 11.2167 22 10.6667V7.34665C22 6.96665 21.72 6.55665 21.37 6.41665ZM12 9.16665C11.17 9.16665 10.5 8.49665 10.5 7.66665C10.5 6.83665 11.17 6.16665 12 6.16665C12.83 6.16665 13.5 6.83665 13.5 7.66665C13.5 8.49665 12.83 9.16665 12 9.16665Z" fill="#F7F8F8"/>
</svg>
