<svg width="24" height="25" viewBox="0 0 24 25" fill="none" xmlns="http://www.w3.org/2000/svg">
<path d="M22 5.51668V17.4067C22 18.3767 21.21 19.2667 20.24 19.3867L19.93 19.4267C18.29 19.6467 15.98 20.3267 14.12 21.1067C13.47 21.3767 12.75 20.8867 12.75 20.1767V6.26668C12.75 5.89668 12.96 5.55668 13.29 5.37668C15.12 4.38668 17.89 3.50668 19.77 3.34668H19.83C21.03 3.34668 22 4.31668 22 5.51668Z" fill="#F7F8F8"/>
<path d="M10.7102 5.37668C8.88023 4.38668 6.11023 3.50668 4.23023 3.34668H4.16023C2.96023 3.34668 1.99023 4.31668 1.99023 5.51668V17.4067C1.99023 18.3767 2.78023 19.2667 3.75023 19.3867L4.06023 19.4267C5.70023 19.6467 8.01023 20.3267 9.87023 21.1067C10.5202 21.3767 11.2402 20.8867 11.2402 20.1767V6.26668C11.2402 5.88668 11.0402 5.55668 10.7102 5.37668ZM5.00023 8.40668H7.25023C7.66023 8.40668 8.00023 8.74668 8.00023 9.15668C8.00023 9.57668 7.66023 9.90668 7.25023 9.90668H5.00023C4.59023 9.90668 4.25023 9.57668 4.25023 9.15668C4.25023 8.74668 4.59023 8.40668 5.00023 8.40668ZM8.00023 12.9067H5.00023C4.59023 12.9067 4.25023 12.5767 4.25023 12.1567C4.25023 11.7467 4.59023 11.4067 5.00023 11.4067H8.00023C8.41023 11.4067 8.75023 11.7467 8.75023 12.1567C8.75023 12.5767 8.41023 12.9067 8.00023 12.9067Z" fill="#F7F8F8"/>
</svg>
