<svg width="24" height="25" viewBox="0 0 24 25" fill="none" xmlns="http://www.w3.org/2000/svg">
<path d="M6 5.45325C5.59 5.45325 5.25 5.11325 5.25 4.70325V2.95325C5.25 2.54325 5.59 2.20325 6 2.20325C6.41 2.20325 6.75 2.54325 6.75 2.95325V4.70325C6.75 5.12325 6.41 5.45325 6 5.45325Z" fill="#F7F8F8"/>
<path d="M10 5.45325C9.59 5.45325 9.25 5.11325 9.25 4.70325V2.95325C9.25 2.54325 9.59 2.20325 10 2.20325C10.41 2.20325 10.75 2.54325 10.75 2.95325V4.70325C10.75 5.12325 10.41 5.45325 10 5.45325Z" fill="#F7F8F8"/>
<path d="M14 5.45325C13.59 5.45325 13.25 5.11325 13.25 4.70325V2.95325C13.25 2.54325 13.59 2.20325 14 2.20325C14.41 2.20325 14.75 2.54325 14.75 2.95325V4.70325C14.75 5.12325 14.41 5.45325 14 5.45325Z" fill="#F7F8F8"/>
<path d="M22.25 13.5833C22.25 10.9633 20.22 8.84326 17.66 8.62326C16.92 7.41326 15.6 6.59326 14.08 6.59326H6.71C4.39 6.59326 2.5 8.48326 2.5 10.8033V11.3333H18.29V10.8033C18.29 10.6133 18.26 10.4233 18.23 10.2433C19.68 10.6733 20.75 11.9933 20.75 13.5833C20.75 15.1533 19.71 16.4633 18.29 16.9033V12.3333H2.5V18.1233C2.5 20.4433 4.39 22.3333 6.71 22.3333H14.08C16.28 22.3333 18.07 20.6333 18.25 18.4733C20.53 18.0133 22.25 15.9933 22.25 13.5833Z" fill="#F7F8F8"/>
</svg>
