<svg width="24" height="25" viewBox="0 0 24 25" fill="none" xmlns="http://www.w3.org/2000/svg">
<path d="M17 22.3333H7C6.59 22.3333 6.25 21.9933 6.25 21.5833C6.25 21.1733 6.59 20.8333 7 20.8333H17C17.41 20.8333 17.75 21.1733 17.75 21.5833C17.75 21.9933 17.41 22.3333 17 22.3333Z" fill="#F7F8F8"/>
<path d="M20.3502 5.85329L16.3502 8.71329C15.8202 9.09329 15.0602 8.86329 14.8302 8.25329L12.9402 3.21329C12.6202 2.34329 11.3902 2.34329 11.0702 3.21329L9.17022 8.24329C8.94022 8.86329 8.19022 9.09329 7.66022 8.70329L3.66022 5.84329C2.86022 5.28329 1.80022 6.07329 2.13022 7.00329L6.29022 18.6533C6.43022 19.0533 6.81022 19.3133 7.23022 19.3133H16.7602C17.1802 19.3133 17.5602 19.0433 17.7002 18.6533L21.8602 7.00329C22.2002 6.07329 21.1402 5.28329 20.3502 5.85329ZM14.5002 15.0833H9.50022C9.09022 15.0833 8.75022 14.7433 8.75022 14.3333C8.75022 13.9233 9.09022 13.5833 9.50022 13.5833H14.5002C14.9102 13.5833 15.2502 13.9233 15.2502 14.3333C15.2502 14.7433 14.9102 15.0833 14.5002 15.0833Z" fill="#F7F8F8"/>
</svg>
