<svg width="24" height="25" viewBox="0 0 24 25" fill="none" xmlns="http://www.w3.org/2000/svg">
<path d="M11.9697 2.66669C6.44973 2.66669 1.96973 7.14669 1.96973 12.6667C1.96973 18.1867 6.44973 22.6667 11.9697 22.6667C17.4897 22.6667 21.9697 18.1867 21.9697 12.6667C21.9697 7.14669 17.4997 2.66669 11.9697 2.66669ZM15.7197 13.0167L11.9997 17.2467L11.5597 17.7467C10.9497 18.4367 10.4497 18.2567 10.4497 17.3267V13.3667H8.74973C7.97973 13.3667 7.76973 12.8967 8.27973 12.3167L11.9997 8.08669L12.4397 7.58669C13.0497 6.89669 13.5497 7.07669 13.5497 8.00669V11.9667H15.2497C16.0197 11.9667 16.2297 12.4367 15.7197 13.0167Z" fill="#F7F8F8"/>
</svg>
