<svg width="24" height="25" viewBox="0 0 24 25" fill="none" xmlns="http://www.w3.org/2000/svg">
<path d="M16.19 2.66669H7.81C4.17 2.66669 2 4.83669 2 8.47669V16.8467C2 20.4967 4.17 22.6667 7.81 22.6667H16.18C19.82 22.6667 21.99 20.4967 21.99 16.8567V8.47669C22 4.83669 19.83 2.66669 16.19 2.66669ZM17 18.1367C15.29 18.1367 13.69 17.3967 12.41 16.0267C10.96 17.3367 9.07 18.1367 7 18.1367C6.59 18.1367 6.25 17.7967 6.25 17.3867C6.25 16.9767 6.59 16.6367 7 16.6367C10.47 16.6367 13.34 13.8867 13.71 10.3667H12H7.01C6.6 10.3667 6.26 10.0267 6.26 9.61669C6.26 9.20669 6.6 8.87669 7.01 8.87669H11.25V7.94669C11.25 7.53669 11.59 7.19669 12 7.19669C12.41 7.19669 12.75 7.53669 12.75 7.94669V8.87669H14.44C14.46 8.87669 14.48 8.86669 14.5 8.86669C14.52 8.86669 14.54 8.87669 14.56 8.87669H16.99C17.4 8.87669 17.74 9.21669 17.74 9.62669C17.74 10.0367 17.4 10.3767 16.99 10.3767H15.21C15.06 12.0867 14.42 13.6567 13.44 14.9367C14.44 16.0467 15.69 16.6467 17 16.6467C17.41 16.6467 17.75 16.9867 17.75 17.3967C17.75 17.8067 17.41 18.1367 17 18.1367Z" fill="#F7F8F8"/>
</svg>
