<svg width="24" height="25" viewBox="0 0 24 25" fill="none" xmlns="http://www.w3.org/2000/svg">
<path d="M18.7998 10.5766C17.6698 10.5766 16.6598 11.1266 16.0298 11.9666C15.3998 11.1266 14.3898 10.5766 13.2598 10.5766C11.3498 10.5766 9.7998 12.1366 9.7998 14.0566C9.7998 14.7966 9.9198 15.4866 10.1198 16.1166C11.0998 19.2266 14.1398 21.0966 15.6398 21.6066C15.8498 21.6766 16.1998 21.6766 16.4098 21.6066C17.9098 21.0966 20.9498 19.2366 21.9298 16.1166C22.1398 15.4766 22.2498 14.7966 22.2498 14.0566C22.2598 12.1366 20.7098 10.5766 18.7998 10.5766Z" fill="#F7F8F8"/>
<path d="M20.75 9.0066C20.75 9.2366 20.52 9.3866 20.3 9.3266C18.95 8.9766 17.47 9.2666 16.35 10.0666C16.13 10.2266 15.83 10.2266 15.62 10.0666C14.83 9.4866 13.87 9.1666 12.86 9.1666C10.28 9.1666 8.18 11.2766 8.18 13.8766C8.18 16.6966 9.53 18.8066 10.89 20.2166C10.96 20.2866 10.9 20.4066 10.81 20.3666C8.08 19.4366 2 15.5766 2 9.0066C2 6.1066 4.33 3.7666 7.21 3.7666C8.92 3.7666 10.43 4.5866 11.38 5.8566C12.34 4.5866 13.85 3.7666 15.55 3.7666C18.42 3.7666 20.75 6.1066 20.75 9.0066Z" fill="#F7F8F8"/>
</svg>
