<svg width="24" height="25" viewBox="0 0 24 25" fill="none" xmlns="http://www.w3.org/2000/svg">
<path d="M17.53 8.43663C17.46 8.42663 17.39 8.42663 17.32 8.43663C15.77 8.38663 14.54 7.11663 14.54 5.55663C14.54 3.96663 15.83 2.66663 17.43 2.66663C19.02 2.66663 20.32 3.95663 20.32 5.55663C20.31 7.11663 19.08 8.38663 17.53 8.43663Z" fill="#F7F8F8"/>
<path d="M20.7901 15.3666C19.6701 16.1166 18.1001 16.3966 16.6501 16.2066C17.0301 15.3866 17.2301 14.4766 17.2401 13.5166C17.2401 12.5166 17.0201 11.5666 16.6001 10.7366C18.0801 10.5366 19.6501 10.8166 20.7801 11.5666C22.3601 12.6066 22.3601 14.3166 20.7901 15.3666Z" fill="#F7F8F8"/>
<path d="M6.44016 8.43663C6.51016 8.42663 6.58016 8.42663 6.65016 8.43663C8.20016 8.38663 9.43016 7.11663 9.43016 5.55663C9.43016 3.95663 8.14016 2.66663 6.54016 2.66663C4.95016 2.66663 3.66016 3.95663 3.66016 5.55663C3.66016 7.11663 4.89016 8.38663 6.44016 8.43663Z" fill="#F7F8F8"/>
<path d="M6.55012 13.5166C6.55012 14.4866 6.76012 15.4066 7.14012 16.2366C5.73012 16.3866 4.26012 16.0866 3.18012 15.3766C1.60012 14.3266 1.60012 12.6166 3.18012 11.5666C4.25012 10.8466 5.76012 10.5566 7.18012 10.7166C6.77012 11.5566 6.55012 12.5066 6.55012 13.5166Z" fill="#F7F8F8"/>
<path d="M12.1198 16.5366C12.0398 16.5266 11.9498 16.5266 11.8598 16.5366C10.0198 16.4766 8.5498 14.9666 8.5498 13.1066C8.5598 11.2066 10.0898 9.66663 11.9998 9.66663C13.8998 9.66663 15.4398 11.2066 15.4398 13.1066C15.4298 14.9666 13.9698 16.4766 12.1198 16.5366Z" fill="#F7F8F8"/>
<path d="M8.8698 18.6066C7.3598 19.6166 7.3598 21.2766 8.8698 22.2766C10.5898 23.4266 13.4098 23.4266 15.1298 22.2766C16.6398 21.2666 16.6398 19.6066 15.1298 18.6066C13.4198 17.4566 10.5998 17.4566 8.8698 18.6066Z" fill="#F7F8F8"/>
</svg>
