<svg width="24" height="25" viewBox="0 0 24 25" fill="none" xmlns="http://www.w3.org/2000/svg">
<path d="M22 3.08331H2C1.59 3.08331 1.25 2.74331 1.25 2.33331C1.25 1.92331 1.59 1.58331 2 1.58331H22C22.41 1.58331 22.75 1.92331 22.75 2.33331C22.75 2.74331 22.41 3.08331 22 3.08331Z" fill="#F7F8F8"/>
<path d="M16.6698 22.6733C16.5398 22.9333 16.2698 23.0833 15.9998 23.0833C15.8898 23.0833 15.7698 23.0533 15.6698 23.0033L11.9998 21.1733L8.32977 23.0033C8.22977 23.0533 8.10977 23.0833 7.99977 23.0833C7.72977 23.0833 7.45977 22.9333 7.32977 22.6733C7.13977 22.2933 7.28977 21.8433 7.66977 21.6633L11.2498 19.8733V17.3333H12.7498V19.8733L16.3298 21.6633C16.7098 21.8433 16.8598 22.2933 16.6698 22.6733Z" fill="#F7F8F8"/>
<path d="M3 2.33331V14.4333C3 16.3333 4 17.3333 5.9 17.3333H18.1C20 17.3333 21 16.3333 21 14.4333V2.33331H3ZM16.98 8.91331L13.83 11.5433C13.54 11.7833 13.17 11.8833 12.82 11.8233C12.46 11.7633 12.15 11.5433 11.96 11.2233L10.91 9.47331L7.98 11.9133C7.84 12.0333 7.67 12.0833 7.5 12.0833C7.29 12.0833 7.07 11.9933 6.92 11.8133C6.65 11.4933 6.7 11.0233 7.02 10.7533L10.17 8.12331C10.46 7.88331 10.83 7.78331 11.18 7.84331C11.54 7.90331 11.85 8.12331 12.04 8.44331L13.09 10.1933L16.02 7.75331C16.34 7.48331 16.81 7.53331 17.08 7.85331C17.34 8.17331 17.3 8.64331 16.98 8.91331Z" fill="#F7F8F8"/>
</svg>
