<svg width="24" height="25" viewBox="0 0 24 25" fill="none" xmlns="http://www.w3.org/2000/svg">
<path d="M6.67 14.3333H4C2.9 14.3333 2 15.2333 2 16.3333V21.3333C2 21.8833 2.45 22.3333 3 22.3333H6.67C7.22 22.3333 7.67 21.8833 7.67 21.3333V15.3333C7.67 14.7833 7.22 14.3333 6.67 14.3333Z" fill="#F7F8F8"/>
<path d="M13.3302 10.3333H10.6602C9.56016 10.3333 8.66016 11.2333 8.66016 12.3333V21.3333C8.66016 21.8833 9.11016 22.3333 9.66016 22.3333H14.3302C14.8802 22.3333 15.3302 21.8833 15.3302 21.3333V12.3333C15.3302 11.2333 14.4402 10.3333 13.3302 10.3333Z" fill="#F7F8F8"/>
<path d="M20.0001 17.3333H17.3301C16.7801 17.3333 16.3301 17.7833 16.3301 18.3333V21.3333C16.3301 21.8833 16.7801 22.3333 17.3301 22.3333H21.0001C21.5501 22.3333 22.0001 21.8833 22.0001 21.3333V19.3333C22.0001 18.2333 21.1001 17.3333 20.0001 17.3333Z" fill="#F7F8F8"/>
<path d="M15.0104 5.18329C15.3204 4.87329 15.4404 4.50329 15.3404 4.18329C15.2404 3.86329 14.9304 3.63329 14.4904 3.56329L13.5304 3.40329C13.4904 3.40329 13.4004 3.33329 13.3804 3.29329L12.8504 2.23329C12.4504 1.42329 11.5404 1.42329 11.1404 2.23329L10.6104 3.29329C10.6004 3.33329 10.5104 3.40329 10.4704 3.40329L9.51043 3.56329C9.07043 3.63329 8.77043 3.86329 8.66043 4.18329C8.56043 4.50329 8.68043 4.87329 8.99043 5.18329L9.73043 5.93329C9.77043 5.96329 9.80043 6.08329 9.79043 6.12329L9.58043 7.04329C9.42043 7.73329 9.68043 8.04329 9.85043 8.16329C10.0204 8.28329 10.3904 8.44329 11.0004 8.08329L11.9004 7.55329C11.9404 7.52329 12.0704 7.52329 12.1104 7.55329L13.0004 8.08329C13.2804 8.25329 13.5104 8.30329 13.6904 8.30329C13.9004 8.30329 14.0504 8.22329 14.1404 8.16329C14.3104 8.04329 14.5704 7.73329 14.4104 7.04329L14.2004 6.12329C14.1904 6.07329 14.2204 5.96329 14.2604 5.93329L15.0104 5.18329Z" fill="#F7F8F8"/>
</svg>
